<svg width="482" height="563" viewBox="0 0 482 563" fill="none" xmlns="http://www.w3.org/2000/svg">
<path d="M219.416 130.395C245.538 75.6512 323.462 75.6512 349.584 130.395C360.097 152.426 381.042 167.644 405.244 170.834C465.381 178.761 489.461 252.871 445.469 294.632C427.764 311.438 419.764 336.061 424.208 360.064C435.252 419.707 372.211 465.509 318.9 436.575C297.445 424.931 271.555 424.931 250.1 436.575C196.789 465.509 133.748 419.707 144.792 360.064C149.236 336.061 141.236 311.438 123.531 294.632C79.5394 252.871 103.619 178.761 163.756 170.834C187.958 167.644 208.903 152.426 219.416 130.395Z" fill="#EFD5B4"/>
<rect x="168.56" y="256.513" width="59.8558" height="79.8077" rx="20.6329" transform="rotate(-2.65333 168.56 256.513)" fill="#FBBC12"/>
<circle cx="230.198" cy="293.604" r="13.7875" transform="rotate(-2.65333 230.198 293.604)" fill="#2EA951" stroke="white" stroke-width="6.18987"/>
<path d="M249.629 292.4C276.26 284.441 327.447 259.354 319.136 222.684C308.749 176.845 340.927 168.66 374.877 184.776" stroke="white" stroke-width="10" stroke-dasharray="20 20"/>
</svg>
