<svg width="680" height="637" viewBox="0 0 680 637" fill="none" xmlns="http://www.w3.org/2000/svg">
<path d="M383.211 241.635C393.219 228.671 412.781 228.671 422.789 241.635L425.495 245.139C431.787 253.29 442.433 256.749 452.315 253.854L456.563 252.609C472.28 248.003 488.107 259.502 488.583 275.872L488.712 280.298C489.012 290.591 495.591 299.647 505.288 303.112L509.457 304.602C524.879 310.114 530.924 328.72 521.687 342.244L519.19 345.9C513.383 354.403 513.383 365.597 519.19 374.1L521.687 377.756C530.924 391.28 524.879 409.886 509.457 415.398L505.288 416.888C495.591 420.353 489.012 429.409 488.712 439.702L488.583 444.128C488.107 460.498 472.28 471.997 456.563 467.391L452.315 466.146C442.433 463.251 431.787 466.71 425.495 474.861L422.789 478.365C412.781 491.329 393.219 491.329 383.211 478.365L380.505 474.861C374.213 466.71 363.567 463.251 353.685 466.146L349.437 467.391C333.72 471.997 317.893 460.498 317.417 444.128L317.288 439.702C316.988 429.409 310.409 420.353 300.712 416.888L296.543 415.398C281.121 409.886 275.076 391.28 284.313 377.756L286.81 374.1C292.617 365.597 292.617 354.403 286.81 345.9L284.313 342.244C275.076 328.72 281.121 310.114 296.543 304.602L300.712 303.112C310.409 299.647 316.988 290.591 317.288 280.298L317.417 275.872C317.893 259.502 333.72 248.003 349.437 252.609L353.685 253.854C363.567 256.749 374.213 253.29 380.505 245.139L383.211 241.635Z" fill="#BFE2CA"/>
<path d="M406.182 370.663C417.033 368.239 426.439 378.47 423.113 389.079L408.822 434.666C405.496 445.276 391.933 448.306 384.408 440.121L352.073 404.951C344.548 396.766 348.706 383.505 359.556 381.08L406.182 370.663Z" fill="#547DBF"/>
<circle cx="382.974" cy="378.89" r="12.6306" transform="rotate(47.4055 382.974 378.89)" fill="#EB4335" stroke="white" stroke-width="6.18987"/>
<path d="M377.778 354.273C392.691 330.908 408.13 274.654 350.585 236.562C293.041 198.471 251.14 237.208 237.383 261.338C222.631 285.087 180.418 324.171 129.575 290.516C78.7325 256.86 92.6358 199.036 105.943 174.331" stroke="white" stroke-width="10" stroke-dasharray="20 20"/>
</svg>
