<svg width="79" height="76" viewBox="0 0 79 76" fill="none" xmlns="http://www.w3.org/2000/svg">
<path d="M36.7201 2.50456C39.8321 -0.544772 45.0774 0.91656 46.1628 5.13656L52.2121 28.6552L58.2614 52.1739C59.3468 56.3939 55.4574 60.2059 51.2614 59.0366L27.8681 52.5152L4.4761 45.9952C0.278771 44.8259 -1.07723 39.5512 2.03344 36.5006L19.3774 19.5032L36.7201 2.50456Z" fill="#547DBF"/>
<path d="M52.3829 74.7173L39.5083 64.3907C37.2056 62.544 36.8349 59.1787 38.6829 56.876L54.4883 37.1707C56.3349 34.8667 59.7003 34.4973 62.0029 36.3453L74.8776 46.672C77.1816 48.5187 77.5509 51.884 75.7029 54.1867L59.8976 73.892C58.0509 76.1947 54.6856 76.564 52.3829 74.7173Z" fill="#FCCA34"/>
<path d="M64.5613 32.823C63.7 29.083 66.0333 25.351 69.7733 24.4897C73.5147 23.627 77.2453 25.9603 78.108 29.7017C78.9693 33.4417 76.636 37.1737 72.8947 38.035C69.1547 38.8977 65.4227 36.563 64.5613 32.823Z" fill="#34A851"/>
<path d="M31.4334 46.9622C32.8401 53.0688 29.0308 59.1595 22.9241 60.5662C16.8174 61.9742 10.7268 58.1648 9.32011 52.0582C7.91211 45.9515 11.7228 39.8608 17.8294 38.4528C23.9348 37.0462 30.0268 40.8555 31.4334 46.9622Z" fill="#EA4335"/>
<path d="M31.4334 46.9622C32.8401 53.0688 29.0308 59.1595 22.9241 60.5662C16.8174 61.9742 10.7268 58.1648 9.32011 52.0582C7.91211 45.9515 11.7228 39.8608 17.8294 38.4528C23.9348 37.0462 30.0268 40.8555 31.4334 46.9622Z" stroke="white" stroke-width="4" stroke-miterlimit="10"/>
<path d="M39.5651 55.7759L51.2611 59.0359C55.4584 60.2065 59.3477 56.3932 58.2624 52.1745L54.4237 37.2505L39.5651 55.7759Z" fill="#34A851"/>
</svg>
