<svg width="74" height="23" viewBox="0 0 74 23" fill="none" xmlns="http://www.w3.org/2000/svg">
<path fill-rule="evenodd" clip-rule="evenodd" d="M38 6.19006C34.79 6.19006 32.17 8.63006 32.17 12.0001C32.17 15.3401 34.79 17.8101 38 17.8101C41.21 17.8101 43.83 15.3501 43.83 12.0001C43.83 8.63006 41.21 6.19006 38 6.19006ZM38 15.5201C36.24 15.5201 34.72 14.0701 34.72 12.0001C34.72 9.91006 36.24 8.48006 38 8.48006C39.76 8.48006 41.28 9.91006 41.28 12.0001C41.28 14.0701 39.76 15.5201 38 15.5201Z" fill="#3C4043"/>
<path fill-rule="evenodd" clip-rule="evenodd" d="M58 17.8101H60.51V0.240059H58V17.8101Z" fill="#3C4043"/>
<path fill-rule="evenodd" clip-rule="evenodd" d="M68.26 15.5201C66.96 15.5201 66.04 14.9301 65.44 13.7601L73.21 10.5501L72.95 9.89006C72.47 8.59006 70.99 6.19006 67.98 6.19006C64.99 6.19006 62.5 8.54006 62.5 12.0001C62.5 15.2601 64.96 17.8101 68.26 17.8101C70.92 17.8101 72.46 16.1801 73.1 15.2401L71.12 13.9201C70.46 14.8801 69.56 15.5201 68.26 15.5201ZM68.08 8.37006C69.11 8.37006 69.99 8.90006 70.28 9.65006L65.03 11.8201C65.03 9.38006 66.76 8.37006 68.08 8.37006Z" fill="#3C4043"/>
<path fill-rule="evenodd" clip-rule="evenodd" d="M9.23999 8.19V10.65H15.12C14.94 12.03 14.48 13.04 13.78 13.75C12.92 14.61 11.58 15.55 9.23999 15.55C5.61999 15.55 2.78999 12.63 2.78999 9.01C2.78999 5.39 5.61999 2.47 9.23999 2.47C11.19 2.47 12.62 3.24 13.67 4.23L15.4 2.5C13.94 1.08 11.98 1.90735e-06 9.23999 1.90735e-06C4.27999 1.90735e-06 0.109985 4.04 0.109985 9C0.109985 13.96 4.27999 18 9.23999 18C11.92 18 13.94 17.12 15.52 15.48C17.14 13.86 17.65 11.57 17.65 9.73C17.65 9.16 17.61 8.63 17.52 8.19H9.23999Z" fill="#3C4043"/>
<path fill-rule="evenodd" clip-rule="evenodd" d="M25 6.19006C21.79 6.19006 19.17 8.63006 19.17 12.0001C19.17 15.3401 21.79 17.8101 25 17.8101C28.21 17.8101 30.83 15.3501 30.83 12.0001C30.83 8.63006 28.21 6.19006 25 6.19006ZM25 15.5201C23.24 15.5201 21.72 14.0701 21.72 12.0001C21.72 9.91006 23.24 8.48006 25 8.48006C26.76 8.48006 28.28 9.91006 28.28 12.0001C28.28 14.0701 26.76 15.5201 25 15.5201Z" fill="#3C4043"/>
<path fill-rule="evenodd" clip-rule="evenodd" d="M53.58 7.48999H53.49C52.92 6.80999 51.82 6.18999 50.43 6.18999C47.53 6.18999 45 8.71999 45 12C45 15.26 47.53 17.81 50.43 17.81C51.82 17.81 52.92 17.19 53.49 16.49H53.58V17.3C53.58 19.52 52.39 20.71 50.48 20.71C48.92 20.71 47.95 19.59 47.55 18.64L45.33 19.56C45.97 21.1 47.66 22.99 50.48 22.99C53.47 22.99 56 21.23 56 16.94V6.47999H53.58V7.48999ZM50.65 15.52C48.89 15.52 47.55 14.02 47.55 12C47.55 9.94999 48.89 8.47999 50.65 8.47999C52.39 8.47999 53.75 9.97999 53.75 12.02C53.76 14.05 52.39 15.52 50.65 15.52Z" fill="#3C4043"/>
</svg>
