<svg width="36" height="2163" viewBox="0 0 36 2163" fill="none" xmlns="http://www.w3.org/2000/svg">
<path d="M18 0C9.16344 3.86258e-07 2 7.16344 2 16C2 24.8366 9.16344 32 18 32C26.8366 32 34 24.8366 34 16C34 7.16344 26.8366 -3.86258e-07 18 0ZM18.0001 2163L35.3206 2133L0.679584 2133L18.0001 2163ZM15 22.0309C15 23.6878 16.3431 25.0309 18 25.0309C19.6569 25.0309 21 23.6878 21 22.0309L15 22.0309ZM21 34.0927C21 32.4358 19.6569 31.0927 18 31.0927C16.3431 31.0927 15 32.4358 15 34.0927L21 34.0927ZM15 46.1545C15 47.8113 16.3431 49.1545 18 49.1545C19.6569 49.1545 21 47.8113 21 46.1545L15 46.1545ZM21 58.2163C21 56.5594 19.6569 55.2163 18 55.2163C16.3431 55.2163 15 56.5594 15 58.2163L21 58.2163ZM15 70.2781C15 71.9349 16.3431 73.2781 18 73.2781C19.6569 73.2781 21 71.9349 21 70.2781L15 70.2781ZM21 82.3399C21 80.683 19.6569 79.3399 18 79.3399C16.3431 79.3399 15 80.683 15 82.3399L21 82.3399ZM15 94.4017C15 96.0585 16.3431 97.4017 18 97.4017C19.6569 97.4017 21 96.0585 21 94.4017L15 94.4017ZM21 106.463C21 104.807 19.6569 103.463 18 103.463C16.3431 103.463 15 104.807 15 106.463L21 106.463ZM15 118.525C15 120.182 16.3432 121.525 18 121.525C19.6569 121.525 21 120.182 21 118.525L15 118.525ZM21 130.587C21 128.93 19.6569 127.587 18 127.587C16.3432 127.587 15 128.93 15 130.587L21 130.587ZM15 142.649C15 144.306 16.3432 145.649 18 145.649C19.6569 145.649 21 144.306 21 142.649L15 142.649ZM21 154.711C21 153.054 19.6569 151.711 18 151.711C16.3432 151.711 15 153.054 15 154.711L21 154.711ZM15 166.772C15 168.429 16.3432 169.772 18 169.772C19.6569 169.772 21 168.429 21 166.772L15 166.772ZM21 178.834C21 177.177 19.6569 175.834 18 175.834C16.3432 175.834 15 177.177 15 178.834L21 178.834ZM15 190.896C15 192.553 16.3432 193.896 18 193.896C19.6569 193.896 21 192.553 21 190.896L15 190.896ZM21 202.958C21 201.301 19.6569 199.958 18 199.958C16.3432 199.958 15 201.301 15 202.958L21 202.958ZM15 215.02C15 216.677 16.3432 218.02 18 218.02C19.6569 218.02 21 216.677 21 215.02L15 215.02ZM21 227.081C21 225.425 19.6569 224.081 18 224.081C16.3432 224.081 15 225.425 15 227.081L21 227.081ZM15 239.143C15 240.8 16.3432 242.143 18 242.143C19.6569 242.143 21 240.8 21 239.143L15 239.143ZM21 251.205C21 249.548 19.6569 248.205 18 248.205C16.3432 248.205 15 249.548 15 251.205L21 251.205ZM15 263.267C15 264.924 16.3432 266.267 18 266.267C19.6569 266.267 21 264.924 21 263.267L15 263.267ZM21 275.329C21 273.672 19.6569 272.329 18 272.329C16.3432 272.329 15 273.672 15 275.329L21 275.329ZM15 287.39C15 289.047 16.3432 290.39 18 290.39C19.6569 290.39 21 289.047 21 287.39L15 287.39ZM21 299.452C21 297.795 19.6569 296.452 18 296.452C16.3432 296.452 15 297.795 15 299.452L21 299.452ZM15 311.514C15 313.171 16.3432 314.514 18 314.514C19.6569 314.514 21 313.171 21 311.514L15 311.514ZM21 323.576C21 321.919 19.6569 320.576 18 320.576C16.3432 320.576 15 321.919 15 323.576L21 323.576ZM15 335.638C15 337.295 16.3432 338.638 18 338.638C19.6569 338.638 21 337.295 21 335.638L15 335.638ZM21 347.699C21 346.043 19.6569 344.699 18 344.699C16.3432 344.699 15 346.043 15 347.699L21 347.699ZM15 359.761C15 361.418 16.3432 362.761 18 362.761C19.6569 362.761 21 361.418 21 359.761L15 359.761ZM21 371.823C21 370.166 19.6569 368.823 18 368.823C16.3432 368.823 15 370.166 15 371.823L21 371.823ZM15 383.885C15 385.542 16.3432 386.885 18 386.885C19.6569 386.885 21 385.542 21 383.885L15 383.885ZM21 395.947C21 394.29 19.6569 392.947 18 392.947C16.3432 392.947 15 394.29 15 395.947L21 395.947ZM15 408.008C15 409.665 16.3432 411.008 18 411.008C19.6569 411.008 21 409.665 21 408.008L15 408.008ZM21 420.07C21 418.413 19.6569 417.07 18 417.07C16.3432 417.07 15 418.413 15 420.07L21 420.07ZM15 432.132C15 433.789 16.3432 435.132 18 435.132C19.6569 435.132 21 433.789 21 432.132L15 432.132ZM21 444.194C21 442.537 19.6569 441.194 18 441.194C16.3432 441.194 15 442.537 15 444.194L21 444.194ZM15 456.256C15 457.913 16.3432 459.256 18 459.256C19.6569 459.256 21 457.913 21 456.256L15 456.256ZM21 468.317C21 466.661 19.6569 465.317 18 465.317C16.3432 465.317 15 466.661 15 468.317L21 468.317ZM15 480.379C15 482.036 16.3432 483.379 18 483.379C19.6569 483.379 21 482.036 21 480.379L15 480.379ZM21 492.441C21 490.784 19.6569 489.441 18 489.441C16.3432 489.441 15 490.784 15 492.441L21 492.441ZM15 504.503C15 506.16 16.3432 507.503 18 507.503C19.6569 507.503 21 506.16 21 504.503L15 504.503ZM21 516.565C21 514.908 19.6569 513.565 18 513.565C16.3432 513.565 15 514.908 15 516.565L21 516.565ZM15 528.626C15 530.283 16.3432 531.626 18 531.626C19.6569 531.626 21 530.283 21 528.626L15 528.626ZM21 540.688C21 539.031 19.6569 537.688 18 537.688C16.3432 537.688 15 539.031 15 540.688L21 540.688ZM15 552.75C15 554.407 16.3432 555.75 18 555.75C19.6569 555.75 21 554.407 21 552.75L15 552.75ZM21 564.812C21 563.155 19.6569 561.812 18 561.812C16.3432 561.812 15 563.155 15 564.812L21 564.812ZM15 576.874C15 578.53 16.3432 579.874 18 579.874C19.6569 579.874 21 578.53 21 576.874L15 576.874ZM21 588.935C21 587.279 19.6569 585.935 18 585.935C16.3432 585.935 15 587.279 15 588.935L21 588.935ZM15 600.997C15 602.654 16.3432 603.997 18 603.997C19.6569 603.997 21 602.654 21 600.997L15 600.997ZM21 613.059C21 611.402 19.6569 610.059 18 610.059C16.3432 610.059 15 611.402 15 613.059L21 613.059ZM15 625.121C15 626.777 16.3432 628.121 18 628.121C19.6569 628.121 21 626.777 21 625.121L15 625.121ZM21 637.182C21 635.526 19.6569 634.182 18 634.182C16.3432 634.182 15 635.526 15 637.182L21 637.182ZM15 649.244C15 650.901 16.3432 652.244 18 652.244C19.6569 652.244 21 650.901 21 649.244L15 649.244ZM21 661.306C21 659.649 19.6569 658.306 18 658.306C16.3432 658.306 15 659.649 15 661.306L21 661.306ZM15 673.368C15 675.025 16.3432 676.368 18 676.368C19.6569 676.368 21 675.025 21 673.368L15 673.368ZM21 685.429C21 683.773 19.6569 682.429 18 682.429C16.3432 682.429 15 683.773 15 685.429L21 685.429ZM15 697.491C15 699.148 16.3432 700.491 18 700.491C19.6569 700.491 21 699.148 21 697.491L15 697.491ZM21 709.553C21 707.896 19.6569 706.553 18 706.553C16.3432 706.553 15 707.896 15 709.553L21 709.553ZM15 721.615C15 723.272 16.3432 724.615 18 724.615C19.6569 724.615 21 723.272 21 721.615L15 721.615ZM21 733.677C21 732.02 19.6569 730.677 18 730.677C16.3432 730.677 15 732.02 15 733.677L21 733.677ZM15 745.738C15 747.395 16.3432 748.738 18 748.738C19.6569 748.738 21 747.395 21 745.738L15 745.738ZM21 757.8C21 756.143 19.6569 754.8 18 754.8C16.3432 754.8 15 756.143 15 757.8L21 757.8ZM15 769.862C15 771.519 16.3432 772.862 18 772.862C19.6569 772.862 21 771.519 21 769.862L15 769.862ZM21 781.924C21 780.267 19.6569 778.924 18 778.924C16.3432 778.924 15 780.267 15 781.924L21 781.924ZM15 793.985C15 795.642 16.3432 796.985 18 796.985C19.6569 796.985 21 795.642 21 793.985L15 793.985ZM21 806.047C21 804.39 19.6569 803.047 18 803.047C16.3432 803.047 15 804.39 15 806.047L21 806.047ZM15 818.109C15 819.766 16.3432 821.109 18 821.109C19.6569 821.109 21 819.766 21 818.109L15 818.109ZM21 830.171C21 828.514 19.6569 827.171 18 827.171C16.3432 827.171 15 828.514 15 830.171L21 830.171ZM15 842.232C15 843.889 16.3432 845.232 18 845.232C19.6569 845.232 21 843.889 21 842.232L15 842.232ZM21 854.294C21 852.637 19.6569 851.294 18 851.294C16.3432 851.294 15 852.637 15 854.294L21 854.294ZM15 866.356C15 868.013 16.3432 869.356 18 869.356C19.6569 869.356 21 868.013 21 866.356L15 866.356ZM21 878.418C21 876.761 19.6569 875.418 18 875.418C16.3432 875.418 15 876.761 15 878.418L21 878.418ZM15 890.479C15 892.136 16.3432 893.479 18 893.479C19.6569 893.479 21 892.136 21 890.479L15 890.479ZM21 902.541C21 900.884 19.6569 899.541 18 899.541C16.3432 899.541 15 900.884 15 902.541L21 902.541ZM15 914.603C15 916.26 16.3432 917.603 18 917.603C19.6569 917.603 21 916.26 21 914.603L15 914.603ZM21 926.665C21 925.008 19.6569 923.665 18 923.665C16.3432 923.665 15 925.008 15 926.665L21 926.665ZM15 938.727C15 940.383 16.3432 941.727 18 941.727C19.6569 941.727 21 940.383 21 938.727L15 938.727ZM21 950.788C21 949.132 19.6569 947.788 18 947.788C16.3432 947.788 15 949.132 15 950.788L21 950.788ZM15 962.85C15 964.507 16.3432 965.85 18 965.85C19.6569 965.85 21 964.507 21 962.85L15 962.85ZM21 974.912C21 973.255 19.6569 971.912 18 971.912C16.3432 971.912 15 973.255 15 974.912L21 974.912ZM15 986.974C15 988.631 16.3432 989.974 18 989.974C19.6569 989.974 21 988.631 21 986.974L15 986.974ZM21 999.035C21 997.379 19.6569 996.035 18 996.035C16.3432 996.035 15 997.379 15 999.035L21 999.035ZM15 1011.1C15 1012.75 16.3432 1014.1 18 1014.1C19.6569 1014.1 21 1012.75 21 1011.1L15 1011.1ZM21 1023.16C21 1021.5 19.6569 1020.16 18 1020.16C16.3432 1020.16 15 1021.5 15 1023.16L21 1023.16ZM15 1035.22C15 1036.88 16.3432 1038.22 18 1038.22C19.6569 1038.22 21 1036.88 21 1035.22L15 1035.22ZM21 1047.28C21 1045.63 19.6569 1044.28 18 1044.28C16.3432 1044.28 15 1045.63 15 1047.28L21 1047.28ZM15 1059.34C15 1061 16.3432 1062.34 18 1062.34C19.6569 1062.34 21 1061 21 1059.34L15 1059.34ZM21 1071.41C21 1069.75 19.6569 1068.41 18 1068.41C16.3432 1068.41 15 1069.75 15 1071.41L21 1071.41ZM15 1083.47C15 1085.12 16.3432 1086.47 18 1086.47C19.6569 1086.47 21 1085.12 21 1083.47L15 1083.47ZM21 1095.53C21 1093.87 19.6569 1092.53 18 1092.53C16.3432 1092.53 15 1093.87 15 1095.53L21 1095.53ZM15 1107.59C15 1109.25 16.3432 1110.59 18 1110.59C19.6569 1110.59 21 1109.25 21 1107.59L15 1107.59ZM21 1119.65C21 1118 19.6569 1116.65 18 1116.65C16.3432 1116.65 15 1118 15 1119.65L21 1119.65ZM15 1131.71C15 1133.37 16.3432 1134.71 18 1134.71C19.6569 1134.71 21 1133.37 21 1131.71L15 1131.71ZM21 1143.78C21 1142.12 19.6569 1140.78 18 1140.78C16.3432 1140.78 15 1142.12 15 1143.78L21 1143.78ZM15 1155.84C15 1157.5 16.3432 1158.84 18 1158.84C19.6569 1158.84 21 1157.5 21 1155.84L15 1155.84ZM21.0001 1167.9C21.0001 1166.24 19.6569 1164.9 18.0001 1164.9C16.3432 1164.9 15.0001 1166.24 15.0001 1167.9L21.0001 1167.9ZM15.0001 1179.96C15.0001 1181.62 16.3432 1182.96 18.0001 1182.96C19.6569 1182.96 21.0001 1181.62 21.0001 1179.96L15.0001 1179.96ZM21.0001 1192.02C21.0001 1190.37 19.6569 1189.02 18.0001 1189.02C16.3432 1189.02 15.0001 1190.37 15.0001 1192.02L21.0001 1192.02ZM15.0001 1204.09C15.0001 1205.74 16.3432 1207.09 18.0001 1207.09C19.6569 1207.09 21.0001 1205.74 21.0001 1204.09L15.0001 1204.09ZM21.0001 1216.15C21.0001 1214.49 19.6569 1213.15 18.0001 1213.15C16.3432 1213.15 15.0001 1214.49 15.0001 1216.15L21.0001 1216.15ZM15.0001 1228.21C15.0001 1229.87 16.3432 1231.21 18.0001 1231.21C19.6569 1231.21 21.0001 1229.87 21.0001 1228.21L15.0001 1228.21ZM21.0001 1240.27C21.0001 1238.61 19.6569 1237.27 18.0001 1237.27C16.3432 1237.27 15.0001 1238.61 15.0001 1240.27L21.0001 1240.27ZM15.0001 1252.33C15.0001 1253.99 16.3432 1255.33 18.0001 1255.33C19.6569 1255.33 21.0001 1253.99 21.0001 1252.33L15.0001 1252.33ZM21.0001 1264.39C21.0001 1262.74 19.6569 1261.39 18.0001 1261.39C16.3432 1261.39 15.0001 1262.74 15.0001 1264.39L21.0001 1264.39ZM15.0001 1276.46C15.0001 1278.11 16.3432 1279.46 18.0001 1279.46C19.6569 1279.46 21.0001 1278.11 21.0001 1276.46L15.0001 1276.46ZM21.0001 1288.52C21.0001 1286.86 19.6569 1285.52 18.0001 1285.52C16.3432 1285.52 15.0001 1286.86 15.0001 1288.52L21.0001 1288.52ZM15.0001 1300.58C15.0001 1302.24 16.3432 1303.58 18.0001 1303.58C19.6569 1303.58 21.0001 1302.24 21.0001 1300.58L15.0001 1300.58ZM21.0001 1312.64C21.0001 1310.98 19.6569 1309.64 18.0001 1309.64C16.3432 1309.64 15.0001 1310.98 15.0001 1312.64L21.0001 1312.64ZM15.0001 1324.7C15.0001 1326.36 16.3432 1327.7 18.0001 1327.7C19.6569 1327.7 21.0001 1326.36 21.0001 1324.7L15.0001 1324.7ZM21.0001 1336.76C21.0001 1335.11 19.6569 1333.76 18.0001 1333.76C16.3432 1333.76 15.0001 1335.11 15.0001 1336.76L21.0001 1336.76ZM15.0001 1348.83C15.0001 1350.48 16.3432 1351.83 18.0001 1351.83C19.6569 1351.83 21.0001 1350.48 21.0001 1348.83L15.0001 1348.83ZM21.0001 1360.89C21.0001 1359.23 19.6569 1357.89 18.0001 1357.89C16.3432 1357.89 15.0001 1359.23 15.0001 1360.89L21.0001 1360.89ZM15.0001 1372.95C15.0001 1374.61 16.3432 1375.95 18.0001 1375.95C19.6569 1375.95 21.0001 1374.61 21.0001 1372.95L15.0001 1372.95ZM21.0001 1385.01C21.0001 1383.36 19.6569 1382.01 18.0001 1382.01C16.3432 1382.01 15.0001 1383.36 15.0001 1385.01L21.0001 1385.01ZM15.0001 1397.07C15.0001 1398.73 16.3432 1400.07 18.0001 1400.07C19.6569 1400.07 21.0001 1398.73 21.0001 1397.07L15.0001 1397.07ZM21.0001 1409.14C21.0001 1407.48 19.6569 1406.14 18.0001 1406.14C16.3432 1406.14 15.0001 1407.48 15.0001 1409.14L21.0001 1409.14ZM15.0001 1421.2C15.0001 1422.85 16.3432 1424.2 18.0001 1424.2C19.6569 1424.2 21.0001 1422.85 21.0001 1421.2L15.0001 1421.2ZM21.0001 1433.26C21.0001 1431.6 19.6569 1430.26 18.0001 1430.26C16.3432 1430.26 15.0001 1431.6 15.0001 1433.26L21.0001 1433.26ZM15.0001 1445.32C15.0001 1446.98 16.3432 1448.32 18.0001 1448.32C19.6569 1448.32 21.0001 1446.98 21.0001 1445.32L15.0001 1445.32ZM21.0001 1457.38C21.0001 1455.73 19.6569 1454.38 18.0001 1454.38C16.3432 1454.38 15.0001 1455.73 15.0001 1457.38L21.0001 1457.38ZM15.0001 1469.44C15.0001 1471.1 16.3432 1472.44 18.0001 1472.44C19.6569 1472.44 21.0001 1471.1 21.0001 1469.44L15.0001 1469.44ZM21.0001 1481.51C21.0001 1479.85 19.6569 1478.51 18.0001 1478.51C16.3432 1478.51 15.0001 1479.85 15.0001 1481.51L21.0001 1481.51ZM15.0001 1493.57C15.0001 1495.22 16.3432 1496.57 18.0001 1496.57C19.6569 1496.57 21.0001 1495.22 21.0001 1493.57L15.0001 1493.57ZM21.0001 1505.63C21.0001 1503.97 19.6569 1502.63 18.0001 1502.63C16.3432 1502.63 15.0001 1503.97 15.0001 1505.63L21.0001 1505.63ZM15.0001 1517.69C15.0001 1519.35 16.3432 1520.69 18.0001 1520.69C19.6569 1520.69 21.0001 1519.35 21.0001 1517.69L15.0001 1517.69ZM21.0001 1529.75C21.0001 1528.1 19.6569 1526.75 18.0001 1526.75C16.3432 1526.75 15.0001 1528.1 15.0001 1529.75L21.0001 1529.75ZM15.0001 1541.82C15.0001 1543.47 16.3432 1544.82 18.0001 1544.82C19.6569 1544.82 21.0001 1543.47 21.0001 1541.82L15.0001 1541.82ZM21.0001 1553.88C21.0001 1552.22 19.6569 1550.88 18.0001 1550.88C16.3432 1550.88 15.0001 1552.22 15.0001 1553.88L21.0001 1553.88ZM15.0001 1565.94C15.0001 1567.6 16.3432 1568.94 18.0001 1568.94C19.6569 1568.94 21.0001 1567.6 21.0001 1565.94L15.0001 1565.94ZM21.0001 1578C21.0001 1576.34 19.6569 1575 18.0001 1575C16.3432 1575 15.0001 1576.34 15.0001 1578L21.0001 1578ZM15.0001 1590.06C15.0001 1591.72 16.3432 1593.06 18.0001 1593.06C19.6569 1593.06 21.0001 1591.72 21.0001 1590.06L15.0001 1590.06ZM21.0001 1602.12C21.0001 1600.47 19.6569 1599.12 18.0001 1599.12C16.3432 1599.12 15.0001 1600.47 15.0001 1602.12L21.0001 1602.12ZM15.0001 1614.19C15.0001 1615.84 16.3432 1617.19 18.0001 1617.19C19.6569 1617.19 21.0001 1615.84 21.0001 1614.19L15.0001 1614.19ZM21.0001 1626.25C21.0001 1624.59 19.6569 1623.25 18.0001 1623.25C16.3432 1623.25 15.0001 1624.59 15.0001 1626.25L21.0001 1626.25ZM15.0001 1638.31C15.0001 1639.97 16.3432 1641.31 18.0001 1641.31C19.6569 1641.31 21.0001 1639.97 21.0001 1638.31L15.0001 1638.31ZM21.0001 1650.37C21.0001 1648.71 19.6569 1647.37 18.0001 1647.37C16.3432 1647.37 15.0001 1648.71 15.0001 1650.37L21.0001 1650.37ZM15.0001 1662.43C15.0001 1664.09 16.3432 1665.43 18.0001 1665.43C19.6569 1665.43 21.0001 1664.09 21.0001 1662.43L15.0001 1662.43ZM21.0001 1674.49C21.0001 1672.84 19.6569 1671.49 18.0001 1671.49C16.3432 1671.49 15.0001 1672.84 15.0001 1674.49L21.0001 1674.49ZM15.0001 1686.56C15.0001 1688.21 16.3432 1689.56 18.0001 1689.56C19.6569 1689.56 21.0001 1688.21 21.0001 1686.56L15.0001 1686.56ZM21.0001 1698.62C21.0001 1696.96 19.6569 1695.62 18.0001 1695.62C16.3432 1695.62 15.0001 1696.96 15.0001 1698.62L21.0001 1698.62ZM15.0001 1710.68C15.0001 1712.34 16.3432 1713.68 18.0001 1713.68C19.6569 1713.68 21.0001 1712.34 21.0001 1710.68L15.0001 1710.68ZM21.0001 1722.74C21.0001 1721.08 19.6569 1719.74 18.0001 1719.74C16.3432 1719.74 15.0001 1721.08 15.0001 1722.74L21.0001 1722.74ZM15.0001 1734.8C15.0001 1736.46 16.3432 1737.8 18.0001 1737.8C19.6569 1737.8 21.0001 1736.46 21.0001 1734.8L15.0001 1734.8ZM21.0001 1746.86C21.0001 1745.21 19.6569 1743.86 18.0001 1743.86C16.3432 1743.86 15.0001 1745.21 15.0001 1746.86L21.0001 1746.86ZM15.0001 1758.93C15.0001 1760.58 16.3432 1761.93 18.0001 1761.93C19.6569 1761.93 21.0001 1760.58 21.0001 1758.93L15.0001 1758.93ZM21.0001 1770.99C21.0001 1769.33 19.6569 1767.99 18.0001 1767.99C16.3432 1767.99 15.0001 1769.33 15.0001 1770.99L21.0001 1770.99ZM15.0001 1783.05C15.0001 1784.71 16.3432 1786.05 18.0001 1786.05C19.6569 1786.05 21.0001 1784.71 21.0001 1783.05L15.0001 1783.05ZM21.0001 1795.11C21.0001 1793.46 19.6569 1792.11 18.0001 1792.11C16.3432 1792.11 15.0001 1793.46 15.0001 1795.11L21.0001 1795.11ZM15.0001 1807.17C15.0001 1808.83 16.3432 1810.17 18.0001 1810.17C19.6569 1810.17 21.0001 1808.83 21.0001 1807.17L15.0001 1807.17ZM21.0001 1819.24C21.0001 1817.58 19.6569 1816.24 18.0001 1816.24C16.3432 1816.24 15.0001 1817.58 15.0001 1819.24L21.0001 1819.24ZM15.0001 1831.3C15.0001 1832.95 16.3432 1834.3 18.0001 1834.3C19.6569 1834.3 21.0001 1832.95 21.0001 1831.3L15.0001 1831.3ZM21.0001 1843.36C21.0001 1841.7 19.6569 1840.36 18.0001 1840.36C16.3432 1840.36 15.0001 1841.7 15.0001 1843.36L21.0001 1843.36ZM15.0001 1855.42C15.0001 1857.08 16.3432 1858.42 18.0001 1858.42C19.6569 1858.42 21.0001 1857.08 21.0001 1855.42L15.0001 1855.42ZM21.0001 1867.48C21.0001 1865.83 19.6569 1864.48 18.0001 1864.48C16.3432 1864.48 15.0001 1865.83 15.0001 1867.48L21.0001 1867.48ZM15.0001 1879.54C15.0001 1881.2 16.3432 1882.54 18.0001 1882.54C19.6569 1882.54 21.0001 1881.2 21.0001 1879.54L15.0001 1879.54ZM21.0001 1891.61C21.0001 1889.95 19.6569 1888.61 18.0001 1888.61C16.3432 1888.61 15.0001 1889.95 15.0001 1891.61L21.0001 1891.61ZM15.0001 1903.67C15.0001 1905.32 16.3432 1906.67 18.0001 1906.67C19.6569 1906.67 21.0001 1905.32 21.0001 1903.67L15.0001 1903.67ZM21.0001 1915.73C21.0001 1914.07 19.6569 1912.73 18.0001 1912.73C16.3432 1912.73 15.0001 1914.07 15.0001 1915.73L21.0001 1915.73ZM15.0001 1927.79C15.0001 1929.45 16.3432 1930.79 18.0001 1930.79C19.6569 1930.79 21.0001 1929.45 21.0001 1927.79L15.0001 1927.79ZM21.0001 1939.85C21.0001 1938.2 19.6569 1936.85 18.0001 1936.85C16.3432 1936.85 15.0001 1938.2 15.0001 1939.85L21.0001 1939.85ZM15.0001 1951.92C15.0001 1953.57 16.3432 1954.92 18.0001 1954.92C19.6569 1954.92 21.0001 1953.57 21.0001 1951.92L15.0001 1951.92ZM21.0001 1963.98C21.0001 1962.32 19.6569 1960.98 18.0001 1960.98C16.3432 1960.98 15.0001 1962.32 15.0001 1963.98L21.0001 1963.98ZM15.0001 1976.04C15.0001 1977.7 16.3432 1979.04 18.0001 1979.04C19.6569 1979.04 21.0001 1977.7 21.0001 1976.04L15.0001 1976.04ZM21.0001 1988.1C21.0001 1986.44 19.6569 1985.1 18.0001 1985.1C16.3432 1985.1 15.0001 1986.44 15.0001 1988.1L21.0001 1988.1ZM15.0001 2000.16C15.0001 2001.82 16.3432 2003.16 18.0001 2003.16C19.6569 2003.16 21.0001 2001.82 21.0001 2000.16L15.0001 2000.16ZM21.0001 2012.22C21.0001 2010.57 19.6569 2009.22 18.0001 2009.22C16.3432 2009.22 15.0001 2010.57 15.0001 2012.22L21.0001 2012.22ZM15.0001 2024.29C15.0001 2025.94 16.3432 2027.29 18.0001 2027.29C19.6569 2027.29 21.0001 2025.94 21.0001 2024.29L15.0001 2024.29ZM21.0001 2036.35C21.0001 2034.69 19.6569 2033.35 18.0001 2033.35C16.3432 2033.35 15.0001 2034.69 15.0001 2036.35L21.0001 2036.35ZM15.0001 2048.41C15.0001 2050.07 16.3432 2051.41 18.0001 2051.41C19.6569 2051.41 21.0001 2050.07 21.0001 2048.41L15.0001 2048.41ZM21.0001 2060.47C21.0001 2058.81 19.6569 2057.47 18.0001 2057.47C16.3432 2057.47 15.0001 2058.81 15.0001 2060.47L21.0001 2060.47ZM15.0001 2072.53C15.0001 2074.19 16.3432 2075.53 18.0001 2075.53C19.6569 2075.53 21.0001 2074.19 21.0001 2072.53L15.0001 2072.53ZM21.0001 2084.59C21.0001 2082.94 19.6569 2081.59 18.0001 2081.59C16.3432 2081.59 15.0001 2082.94 15.0001 2084.59L21.0001 2084.59ZM15.0001 2096.66C15.0001 2098.31 16.3432 2099.66 18.0001 2099.66C19.6569 2099.66 21.0001 2098.31 21.0001 2096.66L15.0001 2096.66ZM21.0001 2108.72C21.0001 2107.06 19.6569 2105.72 18.0001 2105.72C16.3432 2105.72 15.0001 2107.06 15.0001 2108.72L21.0001 2108.72ZM15.0001 2120.78C15.0001 2122.44 16.3432 2123.78 18.0001 2123.78C19.6569 2123.78 21.0001 2122.44 21.0001 2120.78L15.0001 2120.78ZM21.0001 2132.84C21.0001 2131.18 19.6569 2129.84 18.0001 2129.84C16.3432 2129.84 15.0001 2131.18 15.0001 2132.84L21.0001 2132.84ZM15.0001 2144.9C15.0001 2146.56 16.3432 2147.9 18.0001 2147.9C19.6569 2147.9 21.0001 2146.56 21.0001 2144.9L15.0001 2144.9ZM21.0001 2156.97C21.0001 2155.31 19.6569 2153.97 18.0001 2153.97C16.3432 2153.97 15.0001 2155.31 15.0001 2156.97L21.0001 2156.97ZM15 16L15 22.0309L21 22.0309L21 16L15 16ZM15 34.0927L15 46.1545L21 46.1545L21 34.0927L15 34.0927ZM15 58.2163L15 70.2781L21 70.2781L21 58.2163L15 58.2163ZM15 82.3399L15 94.4017L21 94.4017L21 82.3399L15 82.3399ZM15 106.463L15 118.525L21 118.525L21 106.463L15 106.463ZM15 130.587L15 142.649L21 142.649L21 130.587L15 130.587ZM15 154.711L15 166.772L21 166.772L21 154.711L15 154.711ZM15 178.834L15 190.896L21 190.896L21 178.834L15 178.834ZM15 202.958L15 215.02L21 215.02L21 202.958L15 202.958ZM15 227.081L15 239.143L21 239.143L21 227.081L15 227.081ZM15 251.205L15 263.267L21 263.267L21 251.205L15 251.205ZM15 275.329L15 287.39L21 287.39L21 275.329L15 275.329ZM15 299.452L15 311.514L21 311.514L21 299.452L15 299.452ZM15 323.576L15 335.638L21 335.638L21 323.576L15 323.576ZM15 347.699L15 359.761L21 359.761L21 347.699L15 347.699ZM15 371.823L15 383.885L21 383.885L21 371.823L15 371.823ZM15 395.947L15 408.008L21 408.008L21 395.947L15 395.947ZM15 420.07L15 432.132L21 432.132L21 420.07L15 420.07ZM15 444.194L15 456.256L21 456.256L21 444.194L15 444.194ZM15 468.317L15 480.379L21 480.379L21 468.317L15 468.317ZM15 492.441L15 504.503L21 504.503L21 492.441L15 492.441ZM15 516.565L15 528.626L21 528.626L21 516.565L15 516.565ZM15 540.688L15 552.75L21 552.75L21 540.688L15 540.688ZM15 564.812L15 576.874L21 576.874L21 564.812L15 564.812ZM15 588.935L15 600.997L21 600.997L21 588.935L15 588.935ZM15 613.059L15 625.121L21 625.121L21 613.059L15 613.059ZM15 637.182L15 649.244L21 649.244L21 637.182L15 637.182ZM15 661.306L15 673.368L21 673.368L21 661.306L15 661.306ZM15 685.429L15 697.491L21 697.491L21 685.429L15 685.429ZM15 709.553L15 721.615L21 721.615L21 709.553L15 709.553ZM15 733.677L15 745.738L21 745.738L21 733.677L15 733.677ZM15 757.8L15 769.862L21 769.862L21 757.8L15 757.8ZM15 781.924L15 793.985L21 793.985L21 781.924L15 781.924ZM15 806.047L15 818.109L21 818.109L21 806.047L15 806.047ZM15 830.171L15 842.232L21 842.232L21 830.171L15 830.171ZM15 854.294L15 866.356L21 866.356L21 854.294L15 854.294ZM15 878.418L15 890.479L21 890.479L21 878.418L15 878.418ZM15 902.541L15 914.603L21 914.603L21 902.541L15 902.541ZM15 926.665L15 938.727L21 938.727L21 926.665L15 926.665ZM15 950.788L15 962.85L21 962.85L21 950.788L15 950.788ZM15 974.912L15 986.974L21 986.974L21 974.912L15 974.912ZM15 999.035L15 1011.1L21 1011.1L21 999.035L15 999.035ZM15 1023.16L15 1035.22L21 1035.22L21 1023.16L15 1023.16ZM15 1047.28L15 1059.34L21 1059.34L21 1047.28L15 1047.28ZM15 1071.41L15 1083.47L21 1083.47L21 1071.41L15 1071.41ZM15 1095.53L15 1107.59L21 1107.59L21 1095.53L15 1095.53ZM15 1119.65L15 1131.71L21 1131.71L21 1119.65L15 1119.65ZM15 1143.78L15 1155.84L21 1155.84L21 1143.78L15 1143.78ZM15.0001 1167.9L15.0001 1179.96L21.0001 1179.96L21.0001 1167.9L15.0001 1167.9ZM15.0001 1192.02L15.0001 1204.09L21.0001 1204.09L21.0001 1192.02L15.0001 1192.02ZM15.0001 1216.15L15.0001 1228.21L21.0001 1228.21L21.0001 1216.15L15.0001 1216.15ZM15.0001 1240.27L15.0001 1252.33L21.0001 1252.33L21.0001 1240.27L15.0001 1240.27ZM15.0001 1264.39L15.0001 1276.46L21.0001 1276.46L21.0001 1264.39L15.0001 1264.39ZM15.0001 1288.52L15.0001 1300.58L21.0001 1300.58L21.0001 1288.52L15.0001 1288.52ZM15.0001 1312.64L15.0001 1324.7L21.0001 1324.7L21.0001 1312.64L15.0001 1312.64ZM15.0001 1336.76L15.0001 1348.83L21.0001 1348.83L21.0001 1336.76L15.0001 1336.76ZM15.0001 1360.89L15.0001 1372.95L21.0001 1372.95L21.0001 1360.89L15.0001 1360.89ZM15.0001 1385.01L15.0001 1397.07L21.0001 1397.07L21.0001 1385.01L15.0001 1385.01ZM15.0001 1409.14L15.0001 1421.2L21.0001 1421.2L21.0001 1409.14L15.0001 1409.14ZM15.0001 1433.26L15.0001 1445.32L21.0001 1445.32L21.0001 1433.26L15.0001 1433.26ZM15.0001 1457.38L15.0001 1469.44L21.0001 1469.44L21.0001 1457.38L15.0001 1457.38ZM15.0001 1481.51L15.0001 1493.57L21.0001 1493.57L21.0001 1481.51L15.0001 1481.51ZM15.0001 1505.63L15.0001 1517.69L21.0001 1517.69L21.0001 1505.63L15.0001 1505.63ZM15.0001 1529.75L15.0001 1541.82L21.0001 1541.82L21.0001 1529.75L15.0001 1529.75ZM15.0001 1553.88L15.0001 1565.94L21.0001 1565.94L21.0001 1553.88L15.0001 1553.88ZM15.0001 1578L15.0001 1590.06L21.0001 1590.06L21.0001 1578L15.0001 1578ZM15.0001 1602.12L15.0001 1614.19L21.0001 1614.19L21.0001 1602.12L15.0001 1602.12ZM15.0001 1626.25L15.0001 1638.31L21.0001 1638.31L21.0001 1626.25L15.0001 1626.25ZM15.0001 1650.37L15.0001 1662.43L21.0001 1662.43L21.0001 1650.37L15.0001 1650.37ZM15.0001 1674.49L15.0001 1686.56L21.0001 1686.56L21.0001 1674.49L15.0001 1674.49ZM15.0001 1698.62L15.0001 1710.68L21.0001 1710.68L21.0001 1698.62L15.0001 1698.62ZM15.0001 1722.74L15.0001 1734.8L21.0001 1734.8L21.0001 1722.74L15.0001 1722.74ZM15.0001 1746.86L15.0001 1758.93L21.0001 1758.93L21.0001 1746.86L15.0001 1746.86ZM15.0001 1770.99L15.0001 1783.05L21.0001 1783.05L21.0001 1770.99L15.0001 1770.99ZM15.0001 1795.11L15.0001 1807.17L21.0001 1807.17L21.0001 1795.11L15.0001 1795.11ZM15.0001 1819.24L15.0001 1831.3L21.0001 1831.3L21.0001 1819.24L15.0001 1819.24ZM15.0001 1843.36L15.0001 1855.42L21.0001 1855.42L21.0001 1843.36L15.0001 1843.36ZM15.0001 1867.48L15.0001 1879.54L21.0001 1879.54L21.0001 1867.48L15.0001 1867.48ZM15.0001 1891.61L15.0001 1903.67L21.0001 1903.67L21.0001 1891.61L15.0001 1891.61ZM15.0001 1915.73L15.0001 1927.79L21.0001 1927.79L21.0001 1915.73L15.0001 1915.73ZM15.0001 1939.85L15.0001 1951.92L21.0001 1951.92L21.0001 1939.85L15.0001 1939.85ZM15.0001 1963.98L15.0001 1976.04L21.0001 1976.04L21.0001 1963.98L15.0001 1963.98ZM15.0001 1988.1L15.0001 2000.16L21.0001 2000.16L21.0001 1988.1L15.0001 1988.1ZM15.0001 2012.22L15.0001 2024.29L21.0001 2024.29L21.0001 2012.22L15.0001 2012.22ZM15.0001 2036.35L15.0001 2048.41L21.0001 2048.41L21.0001 2036.35L15.0001 2036.35ZM15.0001 2060.47L15.0001 2072.53L21.0001 2072.53L21.0001 2060.47L15.0001 2060.47ZM15.0001 2084.59L15.0001 2096.66L21.0001 2096.66L21.0001 2084.59L15.0001 2084.59ZM15.0001 2108.72L15.0001 2120.78L21.0001 2120.78L21.0001 2108.72L15.0001 2108.72ZM15.0001 2132.84L15.0001 2144.9L21.0001 2144.9L21.0001 2132.84L15.0001 2132.84Z" fill="#EFD5B4"/>
</svg>
